<?xml version="1.0" standalone="no"?>
<!DOCTYPE svg PUBLIC "-//W3C//DTD SVG 20010904//EN"
 "http://www.w3.org/TR/2001/REC-SVG-20010904/DTD/svg10.dtd">
<svg version="1.0" xmlns="http://www.w3.org/2000/svg"
 width="512.000000pt" height="512.000000pt" viewBox="0 0 512.000000 512.000000"
 preserveAspectRatio="xMidYMid meet">
<metadata>
Created by potrace 1.14, written by Peter Selinger 2001-2017
</metadata>
<g transform="translate(0.000000,512.000000) scale(0.100000,-0.100000)"
fill="#000000" stroke="none">
<path d="M836 4353 c-10 -46 -565 -3597 -563 -3599 1 -1 107 -3 236 -5 l235
-4 272 1770 c150 974 276 1791 279 1818 l7 47 -230 0 -230 0 -6 -27z"/>
<path d="M4386 4353 c-10 -46 -565 -3597 -563 -3599 1 -1 107 -3 236 -5 l235
-4 272 1770 c150 974 276 1791 279 1818 l7 47 -230 0 -230 0 -6 -27z"/>
<path d="M1610 2520 l0 -1680 285 0 285 0 0 620 0 620 705 0 705 0 0 270 0
270 -705 0 -705 0 0 520 0 520 730 0 730 0 0 270 0 270 -1015 0 -1015 0 0
-1680z"/>
</g>
</svg>
